<?xml version="1.0" encoding="utf-8"?>
<!-- Generator: Adobe Illustrator 23.0.1, SVG Export Plug-In . SVG Version: 6.00 Build 0)  -->
<svg version="1.1" id="Capa_1" xmlns="http://www.w3.org/2000/svg" xmlns:xlink="http://www.w3.org/1999/xlink" x="0px" y="0px"
	 viewBox="0 0 60.73 60.73" style="enable-background:new 0 0 60.73 60.73;" xml:space="preserve">
<style type="text/css">
	.st0{fill:#160F1D;}
</style>
<g>
	<path class="st0" d="M57.38,0H3.35C1.5,0,0,1.5,0,3.35v54.03c0,1.85,1.5,3.35,3.35,3.35h29.09V37.21h-7.91v-9.17h7.91v-6.76
		c0-7.84,4.79-12.12,11.79-12.12c3.35,0,6.23,0.25,7.07,0.36v8.2l-4.85,0c-3.81,0-4.54,1.81-4.54,4.46v5.85h9.08l-1.19,9.17H41.9
		v23.52h15.47c1.85,0,3.35-1.5,3.35-3.35V3.35C60.73,1.5,59.23,0,57.38,0z"/>
</g>
</svg>
