<?xml version="1.0" encoding="utf-8"?>
<!-- Generator: Adobe Illustrator 23.0.1, SVG Export Plug-In . SVG Version: 6.00 Build 0)  -->
<svg version="1.1" id="Layer_1" xmlns="http://www.w3.org/2000/svg" xmlns:xlink="http://www.w3.org/1999/xlink" x="0px" y="0px"
	 viewBox="0 0 169.06 169.06" style="enable-background:new 0 0 169.06 169.06;" xml:space="preserve">
<style type="text/css">
	.st0{fill:#160F1D;}
</style>
<g>
	<path class="st0" d="M122.41,0H46.65C20.93,0,0,20.93,0,46.66v75.75c0,25.73,20.93,46.65,46.65,46.65h75.75
		c25.73,0,46.66-20.93,46.66-46.65V46.66C169.06,20.93,148.13,0,122.41,0z M154.06,122.41c0,17.46-14.2,31.65-31.66,31.65H46.65
		c-17.45,0-31.65-14.2-31.65-31.65V46.66C15,29.2,29.2,15,46.65,15h75.75c17.45,0,31.66,14.2,31.66,31.65L154.06,122.41
		L154.06,122.41z"/>
	<path class="st0" d="M84.53,40.97c-24.02,0-43.56,19.54-43.56,43.56c0,24.02,19.54,43.56,43.56,43.56s43.56-19.54,43.56-43.56
		C128.09,60.51,108.55,40.97,84.53,40.97z M84.53,113.09c-15.75,0-28.56-12.81-28.56-28.56c0-15.75,12.81-28.56,28.56-28.56
		s28.56,12.81,28.56,28.56C113.09,100.28,100.28,113.09,84.53,113.09z"/>
	<path class="st0" d="M129.92,28.25c-2.89,0-5.73,1.17-7.77,3.22c-2.05,2.04-3.23,4.88-3.23,7.78c0,2.89,1.18,5.73,3.23,7.78
		c2.04,2.04,4.88,3.22,7.77,3.22c2.9,0,5.73-1.18,7.78-3.22c2.05-2.05,3.22-4.89,3.22-7.78c0-2.9-1.17-5.74-3.22-7.78
		C135.66,29.42,132.82,28.25,129.92,28.25z"/>
</g>
</svg>
