<svg class="logo-web" xmlns="http://www.w3.org/2000/svg" width="1116" height="1116" viewBox="0 0 1116 1116"><path d="M735.48 380.52C688.08 333.11 625.04 307 558 307c-67.04 0-130.08 26.11-177.48 73.52S307 490.96 307 558c0 67.04 26.11 130.08 73.52 177.48 5.08 5.09 10.36 9.91 15.79 14.5l44.82-72.82C410.21 646.84 391 604.62 391 558c0-92.08 74.92-167 167-167s167 74.92 167 167-74.92 167-167 167c-15.24 0-30.01-2.06-44.04-5.91l-45.3 73.6C496.81 803.4 526.97 809 558 809c67.04 0 130.08-26.11 177.48-73.52C782.89 688.08 809 625.04 809 558c0-67.04-26.11-130.08-73.52-177.48z"/><path d="M1072.13 340.79c-28.11-66.45-68.33-126.12-119.57-177.35-51.23-51.23-110.9-91.46-177.35-119.57C706.39 14.76 633.31 0 558 0S409.61 14.76 340.79 43.87c-66.45 28.11-126.12 68.33-177.35 119.57-51.23 51.23-91.46 110.9-119.57 177.35C14.76 409.61 0 482.69 0 558s14.76 148.39 43.87 217.21c28.11 66.45 68.33 126.12 119.57 177.35 51.23 51.23 110.9 91.46 177.35 119.57C409.61 1101.24 482.69 1116 558 1116c20.07 0 39.97-1.06 59.69-3.15l-13.06-83.14a475.98 475.98 0 01-46.63 2.28c-261.36 0-474-212.64-474-474C84 299.98 291.23 89.45 548 84.11v63.01c-51.94 1.23-102.35 12.04-149.99 32.2-46.55 19.69-88.58 47.47-125.04 82.61l67.07 52.54C397.93 262.6 474.34 231 558 231c180.31 0 327 146.69 327 327S738.31 885 558 885 231 738.31 231 558c0-66.41 19.92-128.25 54.07-179.89l-66.43-52.04a410.355 410.355 0 00-39.32 71.94C157.87 448.7 147 502.53 147 558c0 55.47 10.87 109.29 32.32 159.99 20.7 48.95 50.33 92.9 88.06 130.63 37.73 37.73 81.68 67.36 130.63 88.06C448.7 958.13 502.53 969 558 969c55.47 0 109.29-10.87 159.99-32.32 46.44-19.64 88.36-47.33 124.76-82.33l48.91 39.98c-56.2 55.75-126.24 97.58-204.45 119.77l13.13 83.59c25.43-6.7 50.43-15.22 74.88-25.56 66.45-28.11 126.12-68.33 177.35-119.57s91.46-110.9 119.57-177.35c29.1-68.82 43.86-141.9 43.86-217.21s-14.76-148.39-43.87-217.21zM945.87 830.16l-48.76-39.86a409.362 409.362 0 0039.57-72.3C958.13 667.29 969 613.47 969 558s-10.87-109.3-32.32-159.99c-20.7-48.95-50.33-92.9-88.06-130.63-37.73-37.73-81.68-67.36-130.63-88.06-27.8-11.76-56.55-20.33-85.99-25.68V89.78C858.34 125.41 1032 321.8 1032 558c0 101.2-31.88 195.09-86.13 272.16z"/></svg>